<svg xmlns="http://www.w3.org/2000/svg" width="16.031" height="16.001" viewBox="0 0 16.031 16.001">
  <path id="cloud-lightning" d="M13.4,4.027a5,5,0,0,0-9.5-1A3.5,3.5,0,1,0,3.5,10H13a3,3,0,0,0,.4-5.973ZM8.5,1a4,4,0,0,1,3.976,3.557.5.5,0,0,0,.5.443H13a2,2,0,0,1,0,4H3.5a2.5,2.5,0,1,1,.605-4.926.5.5,0,0,0,.6-.329A4,4,0,0,1,8.5,1ZM7.053,11.276A.5.5,0,0,1,7.5,11h1a.5.5,0,0,1,.474.658l-.28.842H9.5a.5.5,0,0,1,.39.812l-2,2.5a.5.5,0,0,1-.875-.433L7.36,14H6.5a.5.5,0,0,1-.447-.724Z" transform="translate(0.033 0.002)" fill="#fff"/>
</svg>
