<svg xmlns="http://www.w3.org/2000/svg" width="16.002" height="15" viewBox="0 0 16.002 15">
  <g id="cloud-sun" transform="translate(0.002 -1)">
    <path id="Path_1" data-name="Path 1" d="M7,8a3.5,3.5,0,0,1,3.5,3.555.5.5,0,0,0,.624.492A1.5,1.5,0,1,1,11.5,15H3a2,2,0,1,1,.1-4,.5.5,0,0,0,.51-.375A3.5,3.5,0,0,1,7,8Zm4.473,3a4.5,4.5,0,0,0-8.72-.99A3,3,0,0,0,3,16h8.5a2.5,2.5,0,0,0,0-5Z" fill="#fff"/>
    <path id="Path_2" data-name="Path 2" d="M10.5,1.5a.5.5,0,0,0-1,0v1a.5.5,0,0,0,1,0Zm3.743,1.964a.5.5,0,1,0-.707-.707l-.708.707a.5.5,0,1,0,.708.708ZM6.464,2.757a.5.5,0,1,0-.707.707l.707.708a.5.5,0,1,0,.708-.708l-.708-.707ZM8.2,6.131a2,2,0,1,1,3.3,2.2,5.5,5.5,0,0,1,.516.9A3,3,0,1,0,7.17,6a5.516,5.516,0,0,1,1.03.131ZM12.682,10.2A3.509,3.509,0,0,1,14.2,11.277a.5.5,0,0,0,.039-.742l-.707-.707a.5.5,0,0,0-.854.377ZM14.5,6.5a.5.5,0,0,0,0,1h1a.5.5,0,0,0,0-1Z" fill="#fff"/>
  </g>
</svg>
