<svg xmlns="http://www.w3.org/2000/svg" width="16.031" height="14.002" viewBox="0 0 16.031 14.002">
  <path id="cloud-fog" d="M3,13.5a.5.5,0,0,1,.5-.5h9a.5.5,0,0,1,0,1h-9A.5.5,0,0,1,3,13.5Zm0,2a.5.5,0,0,1,.5-.5h9a.5.5,0,0,1,0,1h-9A.5.5,0,0,1,3,15.5ZM13.4,6.027a5,5,0,0,0-9.5-1A3.5,3.5,0,1,0,3.5,12H13a3,3,0,0,0,.4-5.973ZM8.5,3a4,4,0,0,1,3.976,3.557.5.5,0,0,0,.5.443H13a2,2,0,0,1,0,4H3.5a2.5,2.5,0,1,1,.6-4.926.5.5,0,0,0,.6-.329A4,4,0,0,1,8.5,3Z" transform="translate(0.033 -1.998)" fill="#fff"/>
</svg>
