<svg xmlns="http://www.w3.org/2000/svg" width="16.031" height="15.752" viewBox="0 0 16.031 15.752">
  <path id="cloud-snow" d="M13.4,4.277a5,5,0,0,0-9.5-1,3.5,3.5,0,1,0-.4,6.973H13a3,3,0,0,0,.4-5.973ZM8.5,1.25a4,4,0,0,1,3.976,3.557.5.5,0,0,0,.5.443H13a2,2,0,0,1,0,4H3.5a2.5,2.5,0,1,1,.605-4.926.5.5,0,0,0,.6-.329A4,4,0,0,1,8.5,1.25ZM2.625,11.5a.25.25,0,0,1,.25.25v.57l.5-.287a.25.25,0,0,1,.248.434l-.5.283.5.283a.25.25,0,0,1-.248.434l-.5-.286v.569a.25.25,0,0,1-.5,0v-.57l-.5.287a.25.25,0,0,1-.248-.434l.5-.283-.5-.283a.25.25,0,0,1,.248-.434l.5.286V11.75a.25.25,0,0,1,.25-.25Zm2.75,2a.25.25,0,0,1,.25.25v.57l.5-.287a.25.25,0,0,1,.248.434l-.495.283.495.283a.25.25,0,0,1-.248.434l-.5-.286v.569a.25.25,0,0,1-.5,0v-.57l-.5.287a.25.25,0,0,1-.248-.434l.495-.283-.495-.283a.25.25,0,0,1,.248-.434l.5.286V13.75A.25.25,0,0,1,5.375,13.5Zm5.5,0a.25.25,0,0,1,.25.25v.57l.5-.287a.25.25,0,0,1,.248.434l-.495.283.495.283a.25.25,0,0,1-.248.434l-.5-.286v.569a.25.25,0,0,1-.5,0v-.57l-.5.287a.25.25,0,0,1-.248-.434l.495-.283-.495-.283a.25.25,0,0,1,.248-.434l.5.286V13.75A.25.25,0,0,1,10.875,13.5Zm-2.75-2a.25.25,0,0,1,.25.25v.57l.5-.287a.25.25,0,0,1,.248.434l-.495.283.495.283a.25.25,0,0,1-.248.434l-.5-.286v.569a.25.25,0,0,1-.5,0v-.57l-.5.287a.25.25,0,0,1-.248-.434l.495-.283-.495-.283a.25.25,0,0,1,.248-.434l.5.286V11.75A.25.25,0,0,1,8.125,11.5Zm5.5,0a.25.25,0,0,1,.25.25v.57l.5-.287a.25.25,0,0,1,.248.434l-.495.283.495.283a.25.25,0,0,1-.248.434l-.5-.286v.569a.25.25,0,0,1-.5,0v-.57l-.5.287a.25.25,0,0,1-.248-.434l.495-.283-.495-.283a.25.25,0,0,1,.248-.434l.5.286V11.75A.25.25,0,0,1,13.625,11.5Z" transform="translate(0.033 -0.248)" fill="#fff"/>
</svg>
