<svg xmlns="http://www.w3.org/2000/svg" width="16.011" height="15.022" viewBox="0 0 16.011 15.022">
  <path id="cloud-drizzle" d="M4.158,12.025a.5.5,0,0,1,.316.633l-.5,1.5a.5.5,0,0,1-.948-.316l.5-1.5a.5.5,0,0,1,.632-.317Zm6,0a.5.5,0,0,1,.316.633l-.5,1.5a.5.5,0,0,1-.948-.316l.5-1.5a.5.5,0,0,1,.632-.317Zm-3.5,1.5a.5.5,0,0,1,.316.633l-.5,1.5a.5.5,0,0,1-.948-.316l.5-1.5a.5.5,0,0,1,.632-.317Zm6,0a.5.5,0,0,1,.316.633l-.5,1.5a.5.5,0,1,1-.948-.316l.5-1.5a.5.5,0,0,1,.632-.317Zm.747-8.5a5,5,0,0,0-9.5-1A3.5,3.5,0,1,0,3.5,11H13a3,3,0,0,0,.4-5.973ZM8.5,2a4,4,0,0,1,3.976,3.557.5.5,0,0,0,.5.443H13a2,2,0,0,1,0,4H3.5a2.5,2.5,0,1,1,.6-4.926.5.5,0,0,0,.6-.329A4,4,0,0,1,8.5,2Z" transform="translate(0.012 -0.996)" fill="#fff"/>
</svg>
