<svg xmlns="http://www.w3.org/2000/svg" width="16" height="14" viewBox="0 0 16 14">
  <g id="weather-severe-alert-svgrepo-com" transform="translate(0 -2)">
    <path id="Path_1" data-name="Path 1" d="M9.5,2A2.488,2.488,0,0,0,7.031,4.219,2.95,2.95,0,0,0,6,4,3,3,0,0,0,3,7c0,.1.023.184.031.281A2,2,0,1,0,2,11H7V8.875A1.906,1.906,0,0,1,8.875,7h5.063a2.5,2.5,0,0,0-2-1.937A2.411,2.411,0,0,0,12,4.5,2.5,2.5,0,0,0,9.5,2Zm0,0" fill="#fff"/>
    <path id="Path_2" data-name="Path 2" d="M8.875,8A.864.864,0,0,0,8,8.875v6.25A.864.864,0,0,0,8.875,16h6.25A.864.864,0,0,0,16,15.125V8.875A.864.864,0,0,0,15.125,8ZM11,9h2v2.5a.49.49,0,0,1-.5.5h-1a.49.49,0,0,1-.5-.5Zm.5,4h1a.5.5,0,0,1,.5.5v1a.5.5,0,0,1-.5.5h-1a.5.5,0,0,1-.5-.5v-1A.5.5,0,0,1,11.5,13Zm0,0" fill="#ff7800"/>
  </g>
</svg>
