<svg xmlns="http://www.w3.org/2000/svg" width="16" height="20" viewBox="0 0 16 20">
  <path id="no-save" d="M6.857,2.3C8.292,2.169,10.4,2,12,2s3.708.169,5.143.3A2.767,2.767,0,0,1,19.65,4.852c.143,1.9.35,5.056.35,7.385,0,1.785-.122,4.055-.243,5.867-.06.908-.121,1.706-.166,2.277-.023.285-.042.514-.055.672l-.015.181-.006.063h0l-.771-.067.771.067a.769.769,0,0,1-.4.61.778.778,0,0,1-.734,0l-6.256-3.337a.26.26,0,0,0-.244,0L5.622,21.909a.778.778,0,0,1-.734,0,.769.769,0,0,1-.4-.61l.771-.067-.771.067-.006-.064-.015-.181c-.013-.158-.032-.387-.055-.672-.045-.571-.106-1.369-.166-2.277C4.122,16.292,4,14.022,4,12.237c0-2.329.208-5.488.35-7.385A2.767,2.767,0,0,1,6.857,2.3ZM5.932,20l5.214-2.781a1.817,1.817,0,0,1,1.709,0L18.068,20c.042-.537.093-1.226.144-2,.12-1.806.239-4.033.239-5.765,0-2.266-.2-5.373-.346-7.27A1.224,1.224,0,0,0,17,3.836c-1.432-.135-3.474-.3-5-.3s-3.565.162-5,.3a1.224,1.224,0,0,0-1.109,1.13c-.143,1.9-.346,5-.346,7.27,0,1.732.119,3.959.239,5.765C5.839,18.771,5.89,19.46,5.932,20Z" transform="translate(-4 -2)" fill="#fff" fill-rule="evenodd"/>
</svg>
