<svg xmlns="http://www.w3.org/2000/svg" width="16" height="20" viewBox="0 0 16 20">
  <path id="save" d="M20,12.257c0,3.487-.51,8.82-.51,9.026a.844.844,0,0,1-.408.615c-.1.1-.2.1-.408.1a.766.766,0,0,1-.408-.1l-6.217-3.282h-.2L5.631,21.9a.865.865,0,0,1-.713,0,.693.693,0,0,1-.408-.615c0-.205-.51-5.538-.51-9.026.1-2.256.306-5.231.51-7.385A2.828,2.828,0,0,1,6.955,2.308C8.382,2.205,10.42,2,12.051,2s3.669.205,5.1.308a2.738,2.738,0,0,1,2.446,2.564C19.8,7.026,20,10,20,12.257Z" transform="translate(-4 -2)" fill="#fabe08"/>
</svg>
