<svg xmlns="http://www.w3.org/2000/svg" width="12.641" height="16" viewBox="0 0 12.641 16">
  <g id="trash-svgrepo-com" transform="translate(-1.159)">
    <g id="Group_1" data-name="Group 1" transform="translate(1)">
      <path id="Path_1" data-name="Path 1" d="M.982,5.073,2.007,15.339A.673.673,0,0,0,2.691,16h7.58a.673.673,0,0,0,.684-.661L11.98,5.073Zm6.051,8.995H5.961V6.989H7.033v7.079Zm2,0H7.961l1-7.079h1.072l-1,7.079Zm-4,0H3.961l-1-7.079H4.033l1,7.079Z" fill="#e40613" fill-rule="evenodd"/>
      <path id="Path_2" data-name="Path 2" d="M12.075,2.105H8.937V.709A.843.843,0,0,0,8.081,0h-3.1c-.4,0-.955.225-.955.615v1.4L.886,2.105a.717.717,0,0,0-.727.708V3.968H12.8V2.813a.715.715,0,0,0-.725-.708ZM4.947,1.44c0-.312.351-.565.783-.565H7.294c.432,0,.782.254.782.565v.665H4.946V1.44Z" fill="#e40613" fill-rule="evenodd"/>
    </g>
  </g>
</svg>
